<svg width="111" height="44" viewBox="0 0 111 44" fill="none" xmlns="http://www.w3.org/2000/svg">
<rect x="0.5" y="0.5" width="110" height="43" rx="21.5" fill="#007E60"/>
<path d="M25.0043 27V16.8182H26.8487V25.4538H31.3331V27H25.0043ZM36.2351 27.1491C35.4695 27.1491 34.8082 26.9901 34.2514 26.6719C33.6979 26.3504 33.272 25.8963 32.9737 25.3097C32.6754 24.7197 32.5263 24.0253 32.5263 23.2266C32.5263 22.4411 32.6754 21.7517 32.9737 21.1584C33.2753 20.5618 33.6963 20.0978 34.2365 19.7663C34.7768 19.4316 35.4115 19.2642 36.1406 19.2642C36.6113 19.2642 37.0554 19.3404 37.473 19.4929C37.8939 19.642 38.2652 19.8741 38.5866 20.1889C38.9115 20.5038 39.1667 20.9048 39.3523 21.392C39.5379 21.8759 39.6307 22.4527 39.6307 23.1222V23.674H33.3714V22.4609H37.9055C37.9022 22.1162 37.8277 21.8097 37.6818 21.5412C37.536 21.2694 37.3321 21.0556 37.0703 20.8999C36.8118 20.7441 36.5102 20.6662 36.1655 20.6662C35.7976 20.6662 35.4744 20.7557 35.196 20.9347C34.9176 21.1103 34.7005 21.3423 34.5447 21.6307C34.3923 21.9157 34.3144 22.2289 34.3111 22.5703V23.6293C34.3111 24.0734 34.3923 24.4545 34.5547 24.7727C34.7171 25.0876 34.9441 25.3295 35.2358 25.4986C35.5275 25.6643 35.8688 25.7472 36.2599 25.7472C36.5218 25.7472 36.7588 25.7107 36.9709 25.6378C37.183 25.5616 37.367 25.4505 37.5227 25.3047C37.6785 25.1589 37.7962 24.9782 37.8757 24.7628L39.5561 24.9517C39.45 25.3958 39.2479 25.7836 38.9496 26.1151C38.6546 26.4432 38.2768 26.6984 37.8161 26.8807C37.3554 27.0597 36.8284 27.1491 36.2351 27.1491ZM44.9664 19.3636V20.7557H40.5765V19.3636H44.9664ZM41.6603 17.5341H43.46V24.7031C43.46 24.9451 43.4965 25.1307 43.5694 25.2599C43.6457 25.3859 43.7451 25.4721 43.8677 25.5185C43.9904 25.5649 44.1262 25.5881 44.2754 25.5881C44.3881 25.5881 44.4908 25.5798 44.5836 25.5632C44.6797 25.5466 44.7527 25.5317 44.8024 25.5185L45.1056 26.9254C45.0095 26.9586 44.872 26.995 44.693 27.0348C44.5173 27.0746 44.3019 27.0978 44.0467 27.1044C43.5959 27.1177 43.1899 27.0497 42.8287 26.9006C42.4674 26.7481 42.1807 26.5128 41.9686 26.1946C41.7598 25.8764 41.657 25.4787 41.6603 25.0014V17.5341ZM48.3533 16.8182V17.8324C48.3533 18.1241 48.297 18.4273 48.1843 18.7422C48.0749 19.0537 47.9241 19.352 47.7319 19.6371C47.5397 19.9188 47.3209 20.1607 47.0756 20.3629L46.2404 19.821C46.4227 19.5459 46.5818 19.2493 46.7177 18.9311C46.8536 18.6096 46.9215 18.2467 46.9215 17.8423V16.8182H48.3533ZM54.8587 21.3821L53.218 21.5611C53.1716 21.3954 53.0904 21.2396 52.9744 21.0938C52.8617 20.9479 52.7093 20.8303 52.517 20.7408C52.3248 20.6513 52.0895 20.6065 51.8111 20.6065C51.4366 20.6065 51.1217 20.6877 50.8665 20.8501C50.6146 21.0125 50.4903 21.223 50.4936 21.4815C50.4903 21.7036 50.5715 21.8842 50.7372 22.0234C50.9063 22.1626 51.1847 22.277 51.5724 22.3665L52.875 22.6449C53.5975 22.8007 54.1345 23.0476 54.4858 23.3857C54.8404 23.7237 55.0194 24.1662 55.0227 24.7131C55.0194 25.1937 54.8786 25.6179 54.6001 25.9858C54.325 26.3504 53.9422 26.6354 53.4517 26.8409C52.9612 27.0464 52.3977 27.1491 51.7614 27.1491C50.8267 27.1491 50.0743 26.9536 49.5043 26.5625C48.9342 26.1681 48.5945 25.6196 48.4851 24.9169L50.2401 24.7479C50.3196 25.0926 50.4886 25.3527 50.7472 25.5284C51.0057 25.7041 51.3421 25.7919 51.7564 25.7919C52.1839 25.7919 52.527 25.7041 52.7855 25.5284C53.0473 25.3527 53.1783 25.1357 53.1783 24.8771C53.1783 24.6584 53.0938 24.4777 52.9247 24.3352C52.759 24.1927 52.5005 24.0833 52.1491 24.0071L50.8466 23.7337C50.1141 23.5812 49.5722 23.3243 49.2209 22.9631C48.8696 22.5985 48.6955 22.1378 48.6989 21.581C48.6955 21.1103 48.8232 20.7027 49.0817 20.358C49.3435 20.0099 49.7064 19.7415 50.1705 19.5526C50.6378 19.3603 51.1764 19.2642 51.7862 19.2642C52.6811 19.2642 53.3854 19.4548 53.8991 19.8359C54.4162 20.2171 54.736 20.7325 54.8587 21.3821ZM59.6115 18.3643V16.8182H67.7351V18.3643H64.5881V27H62.7585V18.3643H59.6115ZM70.38 27.1541C69.8961 27.1541 69.4602 27.0679 69.0724 26.8956C68.688 26.7199 68.383 26.4614 68.1577 26.12C67.9356 25.7786 67.8246 25.3577 67.8246 24.8572C67.8246 24.4264 67.9041 24.0701 68.0632 23.7884C68.2223 23.5066 68.4394 23.2812 68.7145 23.1122C68.9896 22.9432 69.2995 22.8156 69.6442 22.7294C69.9922 22.6399 70.3518 22.5753 70.723 22.5355C71.1705 22.4891 71.5334 22.4477 71.8118 22.4112C72.0902 22.3714 72.2924 22.3118 72.4183 22.2322C72.5476 22.1494 72.6122 22.0218 72.6122 21.8494V21.8196C72.6122 21.4451 72.5012 21.1551 72.2791 20.9496C72.0571 20.7441 71.7372 20.6413 71.3196 20.6413C70.8788 20.6413 70.5291 20.7375 70.2706 20.9297C70.0154 21.1219 69.843 21.349 69.7536 21.6108L68.0732 21.3722C68.2057 20.9081 68.4245 20.5204 68.7294 20.2088C69.0343 19.8939 69.4072 19.6586 69.848 19.5028C70.2888 19.3438 70.776 19.2642 71.3097 19.2642C71.6776 19.2642 72.0438 19.3073 72.4084 19.3935C72.773 19.4796 73.1061 19.6222 73.4077 19.821C73.7093 20.0166 73.9512 20.2834 74.1335 20.6214C74.3191 20.9595 74.4119 21.3821 74.4119 21.8892V27H72.6818V25.951H72.6222C72.5128 26.1631 72.3587 26.362 72.1598 26.5476C71.9643 26.7299 71.7173 26.8774 71.419 26.9901C71.1241 27.0994 70.7777 27.1541 70.38 27.1541ZM70.8473 25.8317C71.2086 25.8317 71.5218 25.7604 71.7869 25.6179C72.0521 25.4721 72.2559 25.2798 72.3984 25.0412C72.5443 24.8026 72.6172 24.5424 72.6172 24.2607V23.3608C72.5608 23.4072 72.4647 23.4503 72.3288 23.4901C72.1963 23.5298 72.0471 23.5646 71.8814 23.5945C71.7157 23.6243 71.5516 23.6508 71.3892 23.674C71.2268 23.6972 71.0859 23.7171 70.9666 23.7337C70.6982 23.7701 70.4579 23.8298 70.2457 23.9126C70.0336 23.9955 69.8662 24.1115 69.7436 24.2607C69.621 24.4065 69.5597 24.5954 69.5597 24.8274C69.5597 25.1589 69.6806 25.4091 69.9226 25.5781C70.1645 25.7472 70.4728 25.8317 70.8473 25.8317ZM78.0213 16.8182V27H76.2216V16.8182H78.0213ZM81.5126 24.6037L81.5076 22.4311H81.796L84.5403 19.3636H86.6433L83.2676 23.1222H82.8947L81.5126 24.6037ZM79.872 27V16.8182H81.6717V27H79.872ZM84.6646 27L82.1788 23.5249L83.3919 22.2571L86.8173 27H84.6646Z" fill="white"/>
<rect x="0.5" y="0.5" width="110" height="43" rx="21.5" stroke="#6A65FF"/>
</svg>
