<svg width="133" height="37" viewBox="0 0 133 37" fill="none" xmlns="http://www.w3.org/2000/svg">
<path d="M59.3854 30.2343C57.7154 30.2343 56.2056 29.9462 54.8559 29.37C53.5291 28.7938 52.4768 27.9641 51.699 26.8809C50.9213 25.7977 50.5209 24.5186 50.498 23.0435H55.6451C55.7138 24.0346 56.0569 24.8182 56.6746 25.3944C57.3151 25.9705 58.1844 26.2586 59.2824 26.2586C60.4033 26.2586 61.2841 25.9936 61.9246 25.4635C62.5651 24.9104 62.8854 24.1959 62.8854 23.3201C62.8854 22.6056 62.6681 22.0179 62.2334 21.557C61.7988 21.0961 61.2497 20.7388 60.5863 20.4853C59.9458 20.2087 59.0537 19.9091 57.9099 19.5865C56.3543 19.1255 55.0847 18.6761 54.101 18.2382C53.1402 17.7772 52.3052 17.0974 51.5961 16.1985C50.9098 15.2766 50.5667 14.0551 50.5667 12.534C50.5667 11.1051 50.9213 9.86052 51.6304 8.80034C52.3396 7.74017 53.3347 6.93352 54.6157 6.38038C55.8968 5.8042 57.3608 5.51611 59.0079 5.51611C61.4785 5.51611 63.4802 6.12686 65.0128 7.34837C66.5684 8.54682 67.4263 10.2293 67.5864 12.3957H62.302C62.2563 11.566 61.9017 10.8861 61.2383 10.356C60.5978 9.8029 59.7399 9.52633 58.6648 9.52633C57.7269 9.52633 56.9719 9.76833 56.4 10.2523C55.851 10.7363 55.5765 11.4393 55.5765 12.3611C55.5765 13.0065 55.7824 13.5481 56.1942 13.986C56.6288 14.4008 57.155 14.7465 57.7726 15.0231C58.4131 15.2766 59.3053 15.5762 60.4491 15.9219C62.0047 16.3829 63.2743 16.8438 64.2579 17.3048C65.2416 17.7657 66.088 18.4571 66.7972 19.379C67.5063 20.3009 67.8609 21.5109 67.8609 23.009C67.8609 24.2996 67.5292 25.4981 66.8658 26.6043C66.2024 27.7106 65.2302 28.5979 63.9491 29.2663C62.6681 29.9116 61.1468 30.2343 59.3854 30.2343Z" fill="#111A29"/>
<path d="M70.7905 20.347C70.7905 18.411 71.1679 16.694 71.9228 15.196C72.7006 13.6979 73.7415 12.5455 75.0454 11.7389C76.3722 10.9322 77.8477 10.5289 79.4719 10.5289C80.8902 10.5289 82.1255 10.817 83.1778 11.3932C84.253 11.9693 85.1108 12.6953 85.7513 13.5711V10.84H90.5896V29.9923H85.7513V27.192C85.1337 28.0909 84.2758 28.8399 83.1778 29.4392C82.1026 30.0153 80.8559 30.3034 79.4376 30.3034C77.8363 30.3034 76.3722 29.8886 75.0454 29.0589C73.7415 28.2292 72.7006 27.0653 71.9228 25.5672C71.1679 24.0461 70.7905 22.306 70.7905 20.347ZM85.7513 20.4162C85.7513 19.2407 85.5226 18.2382 85.0651 17.4085C84.6075 16.5557 83.9899 15.9104 83.2121 15.4725C82.4343 15.0116 81.5993 14.7811 80.7072 14.7811C79.815 14.7811 78.9915 15.0001 78.2366 15.438C77.4817 15.8758 76.864 16.5212 76.3836 17.3739C75.9261 18.2036 75.6973 19.1947 75.6973 20.347C75.6973 21.4994 75.9261 22.5135 76.3836 23.3893C76.864 24.242 77.4817 24.8988 78.2366 25.3598C79.0144 25.8207 79.8379 26.0512 80.7072 26.0512C81.5993 26.0512 82.4343 25.8323 83.2121 25.3944C83.9899 24.9334 84.6075 24.2881 85.0651 23.4584C85.5226 22.6056 85.7513 21.5916 85.7513 20.4162Z" fill="#111A29"/>
<path d="M102.556 30.3034C101 30.3034 99.605 30.0269 98.3697 29.4737C97.1344 28.8975 96.1508 28.1255 95.4188 27.1575C94.7096 26.1895 94.3207 25.1178 94.2521 23.9424H99.0903C99.1818 24.6799 99.5364 25.2906 100.154 25.7746C100.795 26.2586 101.584 26.5006 102.522 26.5006C103.437 26.5006 104.146 26.3163 104.649 25.9475C105.175 25.5787 105.438 25.1063 105.438 24.5301C105.438 23.9078 105.118 23.4469 104.478 23.1473C103.86 22.8246 102.865 22.4789 101.492 22.1101C100.074 21.7644 98.9073 21.4072 97.9923 21.0384C97.1001 20.6697 96.3223 20.105 95.6589 19.3445C95.0184 18.5839 94.6982 17.5583 94.6982 16.2677C94.6982 15.2075 94.9955 14.2395 95.5903 13.3637C96.208 12.4879 97.0773 11.7965 98.1982 11.2894C99.342 10.7824 100.68 10.5289 102.213 10.5289C104.478 10.5289 106.285 11.1051 107.635 12.2574C108.984 13.3867 109.728 14.9194 109.865 16.8554H105.267C105.198 16.0948 104.878 15.4956 104.306 15.0577C103.757 14.5967 103.014 14.3663 102.076 14.3663C101.206 14.3663 100.532 14.5276 100.051 14.8502C99.5936 15.1729 99.3649 15.6223 99.3649 16.1985C99.3649 16.8438 99.6851 17.3393 100.326 17.6851C100.966 18.0077 101.961 18.3419 103.311 18.6876C104.684 19.0333 105.816 19.3906 106.708 19.7593C107.6 20.1281 108.367 20.7042 109.007 21.4879C109.67 22.2484 110.014 23.2625 110.036 24.5301C110.036 25.6364 109.728 26.6274 109.11 27.5032C108.515 28.379 107.646 29.0704 106.502 29.5774C105.381 30.0614 104.066 30.3034 102.556 30.3034Z" fill="#111A29"/>
<path d="M122.421 30.3034C120.591 30.3034 118.944 29.9001 117.48 29.0934C116.016 28.2637 114.861 27.0999 114.014 25.6018C113.191 24.1037 112.779 22.3752 112.779 20.4162C112.779 18.4571 113.202 16.7286 114.049 15.2305C114.918 13.7325 116.096 12.5801 117.583 11.7734C119.07 10.9437 120.728 10.5289 122.558 10.5289C124.388 10.5289 126.047 10.9437 127.534 11.7734C129.021 12.5801 130.188 13.7325 131.034 15.2305C131.903 16.7286 132.338 18.4571 132.338 20.4162C132.338 22.3752 131.892 24.1037 131 25.6018C130.13 27.0999 128.941 28.2637 127.431 29.0934C125.944 29.9001 124.274 30.3034 122.421 30.3034ZM122.421 26.0858C123.29 26.0858 124.103 25.8784 124.857 25.4635C125.635 25.0256 126.253 24.3803 126.71 23.5275C127.168 22.6748 127.397 21.6377 127.397 20.4162C127.397 18.5954 126.916 17.2011 125.955 16.2331C125.018 15.2421 123.862 14.7465 122.49 14.7465C121.117 14.7465 119.962 15.2421 119.024 16.2331C118.109 17.2011 117.652 18.5954 117.652 20.4162C117.652 22.2369 118.098 23.6428 118.99 24.6338C119.905 25.6018 121.049 26.0858 122.421 26.0858Z" fill="#111A29"/>
<path fill-rule="evenodd" clip-rule="evenodd" d="M33.0801 7.70975C32.1327 6.48527 31.0288 5.38931 29.7998 4.45033C30.366 8.49144 29.9861 13.6758 27.255 19.7997C24.3388 26.3392 24.4681 31.4916 25.3281 35.0422C26.302 34.6719 27.2335 34.2191 28.1147 33.693C27.4906 29.612 27.8229 24.3284 30.618 18.0605C32.393 14.0803 33.0397 10.614 33.0801 7.70975ZM31.4303 31.1407C34.9166 27.7357 36.9873 22.9247 36.7452 17.6865C36.6741 16.1482 36.4077 14.6647 35.9711 13.2587C35.5317 15.2101 34.8534 17.2926 33.8703 19.4969C31.8239 24.0859 31.2772 27.9919 31.4303 31.1407ZM21.8922 35.967C20.8334 31.6784 20.7336 25.694 24.0027 18.3633C27.0591 11.5099 26.7702 6.17982 25.8009 2.62043C25.7509 2.43671 25.699 2.25745 25.6455 2.08265C24.5949 1.65892 23.4955 1.33262 22.3594 1.11439C22.4501 1.39886 22.5374 1.69311 22.6201 1.99703C23.796 6.31519 24.0386 12.4813 20.6398 20.1025C17.5835 26.956 17.8723 32.2861 18.8416 35.8454C18.8747 35.9674 18.9088 36.0876 18.9436 36.2056C19.2244 36.2058 19.5066 36.1995 19.7902 36.1865C20.5032 36.1539 21.2047 36.0799 21.8922 35.967ZM15.1663 35.7998C14.2153 31.5483 14.2361 25.7328 17.3875 18.6661C20.4437 11.8127 20.155 6.48261 19.1857 2.92322C18.9706 2.13314 18.7203 1.425 18.4618 0.802037C18.3599 0.804972 18.2576 0.808787 18.1553 0.813471C8.33977 1.26274 0.748751 9.54546 1.2002 19.3134C1.57855 27.4997 7.48558 34.1313 15.1663 35.7998Z" fill="#007E60"/>
</svg>
