<svg width="763" height="659" viewBox="0 0 763 659" fill="none" xmlns="http://www.w3.org/2000/svg">
<g clip-path="url(#clip0_2_2045)">
<path d="M188.523 358.011L187.715 357.159L192.793 352.286L193.605 353.134L188.523 358.011ZM198.706 348.233L197.88 347.395C199.538 345.761 201.196 344.076 202.821 342.381L203.667 343.2C202.037 344.895 200.369 346.59 198.706 348.233ZM208.491 338.036L207.622 337.245C209.176 335.532 210.745 333.757 212.286 331.973L213.174 332.74C211.628 334.524 210.055 336.304 208.491 338.036ZM217.721 327.326L216.814 326.582C218.28 324.793 219.759 322.939 221.206 321.079L222.145 321.804C220.675 323.664 219.191 325.523 217.721 327.317V327.326ZM226.41 316.178L225.471 315.472C226.847 313.617 228.238 311.706 229.605 309.771L230.544 310.454C229.191 312.379 227.796 314.305 226.41 316.169V316.178ZM234.598 304.612L233.625 303.953C234.941 302.007 236.235 300.048 237.51 298.077L238.496 298.718C237.209 300.707 235.91 302.672 234.598 304.612ZM298.949 296.453C296.783 296.453 294.636 296.043 292.622 295.243L293.054 294.151C294.931 294.894 296.931 295.276 298.949 295.276C299.241 295.248 299.457 295.276 299.71 295.276L299.767 296.453C299.466 296.467 299.142 296.449 298.921 296.472L298.949 296.453ZM306.747 294.443L306.16 293.421C308.117 292.287 309.738 290.651 310.857 288.681L311.876 289.269C310.647 291.428 308.867 293.22 306.719 294.462L306.747 294.443ZM242.287 292.744L241.291 292.122C242.525 290.126 243.742 288.118 244.941 286.096L245.951 286.699C244.73 288.736 243.499 290.757 242.259 292.762L242.287 292.744ZM286.671 291.105C285.033 289.31 283.724 287.238 282.805 284.985L283.885 284.515C284.755 286.633 285.988 288.582 287.53 290.272L286.671 291.105ZM313.807 282.255L312.632 282.227V281.916C312.642 280.195 312.289 278.491 311.594 276.916C311.42 276.526 311.223 276.14 311.012 275.768L312.036 275.189C312.261 275.594 312.473 276.008 312.665 276.432C313.427 278.159 313.816 280.028 313.807 281.916V282.255ZM249.967 281.022L249.065 280.264C250.588 278.443 252.253 276.746 254.044 275.189L254.81 276.078C253.057 277.6 251.428 279.259 249.939 281.04L249.967 281.022ZM280.968 278.032C280.835 276.901 280.767 275.763 280.766 274.624C280.768 273.365 280.848 272.107 281.006 270.858L282.171 271.004C282.02 272.209 281.943 273.423 281.941 274.638C281.94 275.73 282.006 276.821 282.138 277.905L280.968 278.032ZM260.432 271.959L259.817 270.957C261.841 269.705 263.955 268.604 266.139 267.661L266.609 268.744C264.474 269.662 262.41 270.737 260.432 271.959ZM306.465 270.745C304.623 269.375 302.607 268.257 300.471 267.421L300.908 266.329C303.146 267.211 305.256 268.389 307.184 269.831L306.465 270.745ZM273.143 266.447L272.833 265.312C275.128 264.688 277.463 264.226 279.822 263.928L279.968 265.095C277.666 265.387 275.387 265.838 273.148 266.447H273.143ZM293.811 265.472C291.533 265.042 289.223 264.8 286.906 264.747L286.934 263.57C289.316 263.624 291.69 263.873 294.031 264.314L293.811 265.472ZM283.773 264.281L282.669 263.886C283.483 261.632 284.521 259.466 285.769 257.422L286.77 258.039C285.566 260.013 284.565 262.105 283.782 264.281H283.773ZM290.955 252.512L290.09 251.712C290.433 251.344 290.786 250.982 291.143 250.624C292.483 249.299 293.92 248.075 295.441 246.962L296.136 247.903C294.661 248.981 293.268 250.167 291.969 251.453C291.631 251.806 291.293 252.159 290.964 252.512H290.955ZM302.068 244.306L301.547 243.252C303.68 242.193 305.897 241.311 308.175 240.616L308.518 241.741C306.305 242.418 304.151 243.276 302.078 244.306H302.068ZM315.314 239.985L315.023 238.846C317.32 238.257 319.603 237.636 321.811 237.01L322.13 238.144C319.922 238.775 317.63 239.392 315.324 239.985H315.314ZM328.899 236.115L328.546 234.995C330.811 234.279 333.056 233.531 335.217 232.777L335.602 233.888C333.441 234.646 331.186 235.409 328.908 236.115H328.899ZM342.234 231.44L341.811 230.343C344.01 229.487 346.194 228.592 348.308 227.679L348.777 228.757C346.654 229.68 344.456 230.579 342.244 231.44H342.234ZM355.208 225.824L354.701 224.765L361.037 221.681L361.549 222.741L355.208 225.824ZM367.89 219.652L367.378 218.593L373.715 215.505L374.227 216.564L367.89 219.652ZM380.573 213.476L380.061 212.417L386.397 209.328L386.909 210.388L380.573 213.476ZM393.255 207.299L392.743 206.245L399.08 203.157L399.592 204.216L393.255 207.299ZM405.938 201.128L405.426 200.068L411.762 196.98L412.274 198.039L405.938 201.128Z" fill="#9192FF"/>
<path d="M127.341 343.94H0V343.469C0.338199 332.669 9.55412 324.21 20.9777 324.21C24.2245 324.21 27.4315 324.925 30.3721 326.305C30.4567 318.038 34.6842 310.51 41.528 306.532C44.0724 305.064 46.8827 304.118 49.7955 303.748C52.7083 303.379 55.6652 303.594 58.4943 304.381C61.6696 305.247 64.6413 306.737 67.2364 308.765C69.8314 310.792 71.998 313.317 73.6099 316.193C75.4628 319.4 76.6006 322.972 76.9449 326.662C82.3655 324.285 88.7349 323.033 95.4003 323.033C113.043 323.033 127.393 331.944 127.393 342.894C127.397 343.108 127.389 343.322 127.369 343.535L127.341 343.94ZM0.915954 343.059H126.533V342.913C126.533 332.448 112.578 323.932 95.419 323.932C88.641 323.932 82.187 325.25 76.757 327.745L76.1746 328.009L76.1323 327.373C75.8777 323.595 74.7608 319.926 72.8678 316.649C71.3116 313.876 69.2208 311.44 66.717 309.483C64.2132 307.526 61.3463 306.088 58.2829 305.252C55.5661 304.496 52.7264 304.289 49.9291 304.643C47.1317 304.997 44.4325 305.905 41.9883 307.314C35.2244 311.249 31.119 318.801 31.274 327.025V327.764L30.6164 327.43C27.6321 325.902 24.3286 325.107 20.9777 325.109C10.207 325.109 1.47962 332.957 0.915954 343.059Z" fill="#80BFAF"/>
<path d="M376.35 331.229C376.351 338.451 379.214 345.377 384.31 350.484C389.406 355.591 396.316 358.461 403.523 358.462H705.351C712.558 358.461 719.469 355.591 724.564 350.484C729.66 345.377 732.523 338.451 732.525 331.229V147.159H376.35V331.229Z" fill="white"/>
<path d="M357.712 194.108C361.892 180.729 375.044 170.443 389.441 169.374C403.838 168.306 418.517 176.436 424.816 189.038C432.477 188.968 440.021 193.223 443.741 199.711C445.565 202.967 446.467 206.661 446.351 210.394C446.236 214.127 445.106 217.758 443.083 220.895C452.201 222.482 460.388 228.493 464.423 236.576C466.407 240.622 467.391 245.086 467.291 249.593C467.191 254.099 466.011 258.515 463.85 262.468C473.888 257.356 486.725 257.817 496.354 263.645C505.984 269.473 512.052 280.447 511.714 291.421C517.966 281.591 529.953 275.466 541.87 276.012C553.787 276.559 565.145 283.747 570.448 294.104C576.042 277.326 590.956 263.782 608.608 259.456C626.26 255.129 646.059 260.157 659.267 272.322C679.137 275.438 693.613 297.056 688.437 315.872C699.17 324.774 704.657 339.246 702.411 352.738C700.166 366.23 690.274 378.282 677.206 383.437L335.395 383.23L306.272 252.531L357.712 194.108Z" fill="#80BFAF"/>
<g opacity="0.8">
<path d="M352.291 237.513C356.321 224.134 369.055 213.852 382.963 212.755C396.872 211.658 411.053 219.817 417.126 232.391C420.846 232.357 424.506 233.329 427.721 235.206C430.935 237.083 433.584 239.795 435.389 243.055C437.194 246.315 438.087 250.003 437.975 253.73C437.862 257.457 436.748 261.084 434.75 264.229C439.175 265.021 443.35 266.853 446.932 269.576C450.514 272.298 453.401 275.833 455.355 279.89C457.31 283.948 458.277 288.412 458.177 292.916C458.077 297.42 456.912 301.836 454.779 305.802C459.657 303.227 465.123 301.978 470.633 302.181C476.143 302.384 481.503 304.03 486.18 306.957C490.856 309.883 494.686 313.988 497.286 318.86C499.886 323.733 501.167 329.203 500.999 334.726C507.049 324.892 518.633 318.758 530.122 319.294C541.611 319.831 552.608 327.01 557.718 337.362C563.139 320.58 577.559 307.026 594.615 302.686C611.67 298.345 630.783 303.354 643.55 315.51C662.743 318.607 676.713 340.215 671.701 359.037C682.058 367.929 687.347 382.396 685.167 395.888C682.988 409.38 673.424 421.441 660.794 426.606L330.557 426.658L302.505 295.982L352.291 237.513Z" fill="#F0F9F5"/>
</g>
<path opacity="0.7" d="M614.836 153.067C515.908 246.307 445.736 271.451 357.377 280.438L351.506 374.591L444.275 406.368C525.302 404.014 603.102 286.454 651.159 185.602L614.836 153.067Z" fill="#DAEDE7"/>
<path d="M628.769 154.281C612.685 173.352 588.429 191.594 559.818 216.234L598.857 200.289C594.07 208.236 587.114 219.365 583.192 224.134C592.187 219.972 606.678 210.816 611.459 205.962C611.459 212.736 603.315 224.068 599.763 230.258C620.586 212.397 639.53 190.591 645.646 171.441L628.769 154.281Z" fill="#FFA121"/>
<path opacity="0.4" d="M633.329 155.247C623.812 167.887 609.575 180.07 592.745 196.481L615.527 185.654C612.671 190.903 608.518 198.251 606.203 201.41C611.459 198.586 619.942 192.466 622.77 189.232C622.699 193.661 617.866 201.161 615.724 205.238C627.969 193.341 639.168 178.875 642.911 166.291L633.31 155.242" fill="white"/>
<path d="M485.607 220.019C485.733 222.971 485.607 227.947 482.666 229.651C477.762 232.476 473.906 225.584 472.102 222.119C469.956 217.971 470.505 212.821 475.362 210.976C481.778 208.528 485.372 214.521 485.607 220.019Z" fill="#80BFAF"/>
<path d="M718.174 309.517C718.301 312.464 718.174 317.44 715.234 319.149C710.33 321.974 706.473 315.082 704.67 311.617C702.523 307.469 703.072 302.324 707.929 300.474C714.346 298.021 717.939 304.019 718.174 309.517Z" fill="#80BFAF"/>
<path d="M459.542 190.799C461.812 190.799 463.652 188.954 463.652 186.68C463.652 184.405 461.812 182.56 459.542 182.56C457.272 182.56 455.432 184.405 455.432 186.68C455.432 188.954 457.272 190.799 459.542 190.799Z" fill="#80BFAF"/>
<path d="M671.354 266.596C674.448 265.055 675.71 261.291 674.172 258.19C672.634 255.089 668.879 253.824 665.784 255.366C662.69 256.907 661.428 260.671 662.967 263.772C664.505 266.873 668.26 268.138 671.354 266.596Z" fill="#80BFAF"/>
<path d="M705.351 359.051H403.528C396.167 359.042 389.111 356.108 383.906 350.893C378.701 345.677 375.772 338.605 375.762 331.229V146.589H733.112V331.229C733.103 338.605 730.176 345.676 724.971 350.892C719.767 356.108 712.711 359.042 705.351 359.051ZM376.923 147.766V331.229C376.931 338.293 379.736 345.066 384.721 350.062C389.706 355.057 396.464 357.866 403.514 357.874H705.351C712.4 357.866 719.158 355.057 724.142 350.061C729.127 345.066 731.93 338.293 731.937 331.229V147.766H376.923Z" fill="#007E60"/>
<path d="M705.351 75.8706H403.523C399.953 75.8706 396.418 76.5757 393.12 77.9455C389.822 79.3153 386.825 81.323 384.302 83.8539C381.778 86.3848 379.777 89.3892 378.413 92.6956C377.048 96.0019 376.347 99.5453 376.35 103.123V147.196H732.525V103.123C732.528 99.5451 731.827 96.0014 730.463 92.6948C729.099 89.3882 727.097 86.3835 724.574 83.8525C722.05 81.3215 719.053 79.3138 715.755 77.9442C712.457 76.5746 708.921 75.87 705.351 75.8706Z" fill="white"/>
<path d="M733.112 147.766H375.762V103.123C375.771 95.7463 378.699 88.6739 383.905 83.458C389.11 78.242 396.167 75.3085 403.528 75.301H705.351C712.711 75.3085 719.768 78.2422 724.973 83.4582C730.177 88.6743 733.104 95.7467 733.112 103.123V147.766ZM376.923 146.589H731.937V103.123C731.93 96.0588 729.127 89.2858 724.142 84.2904C719.158 79.2951 712.4 76.4854 705.351 76.4779H403.528C396.476 76.4817 389.714 79.2895 384.726 84.2852C379.738 89.2808 376.931 96.0559 376.923 103.123V146.589Z" fill="#007E60"/>
<path d="M426.816 114.476C428.452 106.394 423.241 98.5125 415.177 96.8725C407.112 95.2325 399.248 100.455 397.612 108.538C395.976 116.62 401.187 124.502 409.251 126.142C417.316 127.782 425.18 122.559 426.816 114.476Z" fill="#80BFAF"/>
<path d="M466.651 122.087C472.469 116.256 472.469 106.801 466.651 100.969C460.832 95.1374 451.398 95.1375 445.579 100.969C439.761 106.801 439.761 116.256 445.579 122.087C451.398 127.919 460.832 127.919 466.651 122.087Z" fill="white"/>
<path d="M456.113 127.043C453.047 127.043 450.05 126.132 447.501 124.425C444.952 122.718 442.965 120.291 441.792 117.453C440.619 114.614 440.312 111.49 440.91 108.477C441.508 105.463 442.985 102.695 445.152 100.522C447.32 98.3497 450.082 96.8701 453.089 96.2707C456.096 95.6713 459.213 95.9789 462.045 97.1547C464.877 98.3306 467.298 100.322 469.001 102.877C470.705 105.431 471.614 108.435 471.614 111.507C471.614 115.628 469.981 119.579 467.074 122.493C464.167 125.406 460.224 127.043 456.113 127.043ZM456.113 97.182C453.282 97.1811 450.515 98.0216 448.16 99.5972C445.806 101.173 443.971 103.413 442.887 106.034C441.803 108.655 441.519 111.539 442.07 114.322C442.622 117.105 443.985 119.661 445.986 121.668C447.988 123.674 450.538 125.041 453.314 125.595C456.091 126.148 458.969 125.865 461.584 124.779C464.2 123.694 466.436 121.855 468.008 119.496C469.581 117.137 470.421 114.364 470.421 111.526C470.416 107.724 468.907 104.079 466.225 101.391C463.543 98.7017 459.907 97.1883 456.113 97.182Z" fill="#80BFAF"/>
<path d="M569.523 97.2764H510.202C502.349 97.2764 495.983 103.656 495.983 111.526V111.531C495.983 119.401 502.349 125.781 510.202 125.781H569.523C577.375 125.781 583.741 119.401 583.741 111.531V111.526C583.741 103.656 577.375 97.2764 569.523 97.2764Z" fill="white"/>
<path d="M569.508 126.365H510.201C506.389 126.198 502.788 124.563 500.149 121.8C497.51 119.038 496.037 115.361 496.037 111.536C496.037 107.711 497.51 104.034 500.149 101.272C502.788 98.5088 506.389 96.8736 510.201 96.7068H569.508C573.321 96.8736 576.922 98.5088 579.561 101.272C582.2 104.034 583.673 107.711 583.673 111.536C583.673 115.361 582.2 119.038 579.561 121.8C576.922 124.563 573.321 126.198 569.508 126.365ZM510.187 97.8602C506.575 97.8602 503.11 99.2985 500.555 101.859C498.001 104.419 496.565 107.892 496.565 111.512C496.565 115.133 498.001 118.606 500.555 121.166C503.11 123.726 506.575 125.165 510.187 125.165H569.508C573.121 125.165 576.586 123.726 579.141 121.166C581.695 118.606 583.13 115.133 583.13 111.512C583.13 107.892 581.695 104.419 579.141 101.859C576.586 99.2985 573.121 97.8602 569.508 97.8602H510.187Z" fill="#80BFAF"/>
<path d="M690.579 43.3877C666.792 64.2568 625.757 49.8749 613.019 66.5353L649.445 95.4451L690.579 43.3877Z" fill="#007E60"/>
<path d="M613.018 66.5354C612.125 68.9217 611.892 71.5058 612.346 74.0138C612.799 76.5218 613.921 78.8601 615.592 80.7808L641.427 110.439L649.469 95.4687L613.018 66.5354Z" fill="#F0F9F5"/>
<path d="M744.494 86.1758C729.679 114.163 753.047 150.887 739.796 167.148L703.379 138.233L744.494 86.1758Z" fill="#007E60"/>
<path d="M739.787 167.148C737.674 168.566 735.217 169.385 732.678 169.518C730.138 169.65 727.61 169.092 725.362 167.901L690.668 149.513L703.35 138.238L739.787 167.148Z" fill="#F0F9F5"/>
<path d="M763 7.52002L730.565 19.454L758.843 41.8954L763 7.52002Z" fill="#1B1B43"/>
<path d="M758.843 41.8904C754.31 93.3264 716.394 141.316 670.338 167.976L628.373 134.702C645.983 79.1516 678.779 39.4377 730.565 19.449L758.843 41.8904Z" fill="#80BFAF"/>
<path d="M628.373 134.702L610.167 147.338L662.236 188.662L670.338 167.976L628.373 134.702Z" fill="#007E60"/>
<path d="M720.69 83.3655C731.373 82.0926 739.004 72.3812 737.734 61.6745C736.464 50.9678 726.774 43.3202 716.091 44.5932C705.408 45.8661 697.778 55.5774 699.048 66.2841C700.318 76.9908 710.008 84.6384 720.69 83.3655Z" fill="white"/>
<path d="M719.861 77.8103L719.739 76.6381C720.865 76.5213 721.97 76.2554 723.027 75.8472L723.449 76.9441C722.296 77.3893 721.09 77.6805 719.861 77.8103ZM716.197 77.7162C714.984 77.525 713.802 77.1703 712.684 76.6616L713.153 75.5883C714.176 76.0472 715.257 76.364 716.366 76.5298L716.197 77.7162ZM726.639 75.1693L725.944 74.2278C726.847 73.5534 727.658 72.7619 728.353 71.8739L729.293 72.6036C728.528 73.5749 727.635 74.438 726.639 75.1693ZM709.569 74.6985C708.62 73.9209 707.779 73.0183 707.07 72.0151L708.01 71.3325C708.661 72.2505 709.432 73.077 710.302 73.7899L709.569 74.6985ZM730.707 70.3816L729.669 69.8355C730.186 68.836 730.57 67.7723 730.81 66.672L731.956 66.9262C731.695 68.1347 731.275 69.303 730.707 70.4004V70.3816ZM705.342 68.7622C704.919 67.6069 704.65 66.4007 704.543 65.1749L705.713 65.0713C705.809 66.1972 706.054 67.3053 706.441 68.3667L705.342 68.7622ZM731.092 63.3389C731.034 62.2188 730.83 61.111 730.486 60.0436L731.599 59.6811C731.979 60.85 732.203 62.0641 732.266 63.2919L731.092 63.3389ZM705.887 61.7289L704.731 61.5218C704.946 60.3096 705.322 59.1317 705.849 58.0193L706.911 58.523C706.426 59.5411 706.079 60.6191 705.877 61.7289H705.887ZM729.025 56.9883C728.408 56.047 727.669 55.1922 726.827 54.4461L727.606 53.5658C728.525 54.3815 729.332 55.3154 730.007 56.3433L729.025 56.9883ZM708.728 55.6937L707.836 54.931C708.634 53.9951 709.551 53.1688 710.565 52.4736L711.227 53.4481C710.299 54.0842 709.459 54.8409 708.728 55.6984V55.6937ZM724.046 52.5631C723.04 52.0612 721.973 51.6955 720.871 51.4756L721.096 50.3222C722.301 50.5609 723.468 50.9599 724.567 51.5086L724.046 52.5631ZM714.224 51.937L713.844 50.8259C715.002 50.4217 716.209 50.1747 717.432 50.0916L717.517 51.2638C716.395 51.3449 715.288 51.5728 714.224 51.9417V51.937Z" fill="#9192FF"/>
<path d="M662.915 135.183L661.99 134.449C660.621 133.363 658.633 133.595 657.549 134.966L621.027 181.199C619.943 182.57 620.174 184.563 621.543 185.649L622.468 186.383C623.836 187.469 625.825 187.237 626.908 185.865L663.431 139.633C664.514 138.261 664.283 136.269 662.915 135.183Z" fill="#0B141F"/>
<path d="M687.112 589.425H680.066V588.249H687.112V589.425ZM673.021 589.425H665.975V588.249H673.021V589.425ZM658.929 589.425H651.883V588.249H658.929V589.425ZM644.837 589.425H637.792V588.249H644.837V589.425ZM630.746 589.425H623.7V588.249H630.746V589.425ZM616.654 589.425H609.608V588.249H616.654V589.425ZM602.563 589.425H595.517V588.249H602.563V589.425ZM588.471 589.425H581.425V588.249H588.471V589.425ZM574.379 589.425H567.334V588.249H574.379V589.425ZM560.288 589.425H553.242V588.249H560.288V589.425ZM546.196 589.425C543.781 589.404 541.384 588.994 539.099 588.211L539.479 587.1C541.646 587.841 543.917 588.228 546.206 588.249L546.196 589.425ZM687.963 589.425L687.92 588.249C690.209 588.166 692.469 587.713 694.614 586.907L695.027 588.008C692.762 588.857 690.375 589.336 687.958 589.425H687.963ZM532.748 584.817C530.827 583.349 529.154 581.581 527.792 579.582L528.76 578.918C530.052 580.814 531.637 582.491 533.457 583.885L532.748 584.817ZM701.274 584.421L700.537 583.508C702.319 582.064 703.857 580.343 705.093 578.41L706.084 579.05C704.775 581.081 703.15 582.888 701.27 584.402L701.274 584.421ZM524.735 573.048C524.166 571.037 523.878 568.956 523.88 566.866V565.925H525.054V566.866C525.053 568.846 525.324 570.817 525.862 572.723L524.735 573.048ZM708.95 572.426L707.813 572.139C708.247 570.415 708.466 568.644 708.466 566.866V565.28H709.64V566.829C709.642 568.71 709.409 570.584 708.945 572.407L708.95 572.426ZM525.049 558.826H523.875V551.764H525.049V558.826ZM709.649 558.204H708.475V551.143H709.649V558.204ZM525.049 544.703H523.875V537.641H525.049V544.703ZM709.649 544.081H708.475V537.02H709.649V544.081ZM525.049 530.58H523.875V523.518H525.049V530.58ZM709.649 529.958H708.475V522.897H709.649V529.958ZM525.049 516.457H523.875V509.395H525.049V516.457ZM709.649 515.835H708.475V508.774H709.649V515.835ZM525.049 502.334H523.875V495.272H525.049V502.334ZM709.649 501.712H708.475V494.651H709.649V501.712ZM525.049 488.211H523.875V483.503C523.875 482.696 523.917 481.89 524.002 481.088L525.171 481.215C525.091 481.975 525.05 482.739 525.049 483.503V488.211ZM709.649 487.589H708.475V483.503C708.475 482.535 708.41 481.568 708.283 480.608L709.448 480.452C709.581 481.464 709.648 482.483 709.649 483.503V487.589ZM526.989 474.62L525.918 474.149C526.924 471.945 528.276 469.919 529.925 468.147L530.785 468.952C529.218 470.62 527.931 472.533 526.975 474.615L526.989 474.62ZM706.291 474.074C705.28 472.013 703.945 470.13 702.336 468.495L703.177 467.671C704.872 469.395 706.28 471.38 707.348 473.551L706.291 474.074ZM536.158 464.724L535.595 463.693C537.714 462.528 540.008 461.716 542.387 461.288L542.593 462.446C540.34 462.853 538.167 463.622 536.158 464.724ZM696.803 464.442C694.764 463.397 692.57 462.69 690.306 462.347L690.48 461.184C692.87 461.545 695.186 462.291 697.338 463.392L696.803 464.442ZM683.359 462.088H676.313V460.911H683.359V462.088ZM669.268 462.088H662.222V460.911H669.268V462.088ZM655.176 462.088H648.13V460.911H655.176V462.088ZM641.084 462.088H634.039V460.911H641.084V462.088ZM626.993 462.088H619.947V460.911H626.993V462.088ZM612.901 462.088H605.855V460.911H612.901V462.088ZM598.81 462.088H591.764V460.911H598.81V462.088ZM584.718 462.088H577.672V460.911H584.718V462.088ZM570.626 462.088H563.58V460.911H570.626V462.088ZM556.535 462.088H549.489V460.911H556.535V462.088Z" fill="#007E60"/>
<path d="M674.26 438.201H524.349C514.774 438.201 507.012 445.981 507.012 455.577V551.647C507.012 561.243 514.774 569.023 524.349 569.023H674.26C683.836 569.023 691.598 561.243 691.598 551.647V455.577C691.598 445.981 683.836 438.201 674.26 438.201Z" fill="#80BFAF"/>
<path d="M559.095 514.616H539.108V555.295H559.095V514.616Z" fill="white"/>
<path d="M592.567 515.925H572.58V555.3H592.567V515.925Z" fill="white"/>
<path d="M626.034 495.357H606.047V555.3H626.034V495.357Z" fill="white"/>
<path d="M659.506 477.769H639.52V555.295H659.506V477.769Z" fill="white"/>
<path d="M652.926 456.627H545.684V461.325H652.926V456.627Z" fill="white"/>
<path d="M219.157 310.491C215.758 298.684 208.564 288.333 198.692 281.045L194.727 278.117L198.095 347.922L224.118 327.75L219.157 310.491Z" fill="#FFA121"/>
<path d="M302.781 394.843L296.999 383.498C296.276 382.076 295.265 380.82 294.031 379.811C292.797 378.802 291.366 378.061 289.831 377.637L272.823 372.929L229.063 344.928L224.117 327.74L198.095 347.922L198.33 352.823C198.561 357.641 200.136 362.298 202.876 366.264C205.616 370.231 209.411 373.347 213.83 375.259L256.321 393.619L276.519 394.09C283.03 396.336 285.275 401.961 289.31 399.937C290.818 399.184 284.937 389.477 284.937 389.477L294.721 400.238L302.781 394.843Z" fill="#FFBC96"/>
<path d="M228.54 344.528L222.82 351.277L223.848 352.152L229.567 345.402L228.54 344.528Z" fill="#D28572"/>
<path d="M226.674 423.108L258.511 420.284C279.236 418.453 297.263 435.221 298.273 457.277L305.465 614.423L261.551 615.789L226.674 423.108Z" fill="#00000B"/>
<path d="M265.082 614.244L266.43 657.649H331.505L299.414 630.886L297.394 609.97L265.082 614.244Z" fill="#F59717"/>
<path d="M298.584 629.837L284.895 640.407L286.537 642.544L300.227 631.974L298.584 629.837Z" fill="white"/>
<path d="M250.271 614.244L251.615 657.649H316.695L284.603 630.886L282.584 609.97L250.271 614.244Z" fill="#FFA121"/>
<path d="M283.775 629.838L270.085 640.408L271.728 642.545L285.417 631.975L283.775 629.838Z" fill="white"/>
<path d="M298.743 618.514H244.885L206.5 500.14L201.126 483.569L124.378 483.23C119.639 483.164 115.101 480.965 111.226 477.712C103.076 470.816 99.3187 459.965 100.812 449.386L107.548 401.25L221.563 416.108C232.112 417.48 241.971 422.112 249.773 429.358C257.574 436.604 262.931 446.105 265.097 456.542L298.743 618.514Z" fill="#0B141F"/>
<path d="M216.945 483.569L206.499 500.144L201.125 483.569H216.945Z" fill="#00000B"/>
<path d="M202.848 392.536C202.294 394.763 201.716 396.99 201.125 399.231L197.085 415.759L143.899 413.547L105.607 411.946C103.22 411.85 100.883 411.233 98.7577 410.139C96.6327 409.046 94.771 407.501 93.3023 405.613C91.8336 403.724 90.7932 401.538 90.2534 399.206C89.7135 396.874 89.6874 394.451 90.1766 392.108L108.026 306C109.146 298.877 112.585 292.326 117.806 287.366C123.027 282.405 129.739 279.314 136.895 278.573L180.579 274.068L194.713 278.116C208.513 285.536 208.527 298.99 209.19 307.803C212.097 346.368 208.527 369.728 202.848 392.536Z" fill="#FFA121"/>
<path opacity="0.3" d="M166.788 389.783C166.239 392.01 201.717 396.99 201.125 399.231L197.085 415.76L143.899 413.547C125.322 399.5 118.36 368.933 111.587 330.636L166.788 389.783Z" fill="#1B1B43"/>
<path d="M156.22 298.962C158.517 301.477 161.2 303.608 164.167 305.275C167.098 306.947 170.323 308.039 173.665 308.491C176.953 308.919 180.434 308.641 183.327 307.078C186.286 305.605 188.165 302.493 188.494 299.127L189.02 299.16C189.005 300.957 188.545 302.722 187.682 304.296C186.778 305.885 185.466 307.202 183.882 308.109C180.72 309.941 176.963 310.275 173.473 309.828C169.966 309.336 166.597 308.128 163.576 306.278C160.569 304.466 157.929 302.104 155.792 299.315L156.22 298.962Z" fill="#1B1B43"/>
<path d="M210.379 351.585L209.373 351.514C210.341 337.937 209.373 321.248 206.461 301.919L207.457 301.768C210.369 321.173 211.351 337.932 210.379 351.585Z" fill="#1B1B43"/>
<path d="M300.763 399.457H250.719V409.353H300.763V399.457Z" fill="#1B1B43"/>
<path d="M387.383 409.352H286.849L333.079 320.735H433.613L387.383 409.352Z" fill="#80BFAF"/>
<path d="M167.295 203.222C155.515 191.58 133.297 196.472 133.635 216.041C109.397 222.448 108.049 249.103 117.81 262.765L126.228 263.438L128.078 253.486L132.959 263.608L156.524 265.128L167.295 203.222Z" fill="#1B1B43"/>
<path d="M186.987 246.74V283.931C186.987 284.27 186.987 284.595 186.945 284.919C186.801 286.733 186.264 288.493 185.371 290.077C184.478 291.66 183.249 293.029 181.773 294.087C180.296 295.145 178.606 295.867 176.822 296.201C175.038 296.536 173.202 296.476 171.444 296.025C166.033 294.626 161.244 291.454 157.84 287.013C154.435 282.572 152.61 277.117 152.655 271.517L152.843 246.754L186.987 246.74Z" fill="#FFBC96"/>
<path d="M186.986 262.812V283.897C186.986 284.236 186.986 284.561 186.944 284.886C177.023 283.271 165.548 271.761 162.729 259.225L186.986 262.812Z" fill="#1B1B43"/>
<path d="M207.062 249.494C206.559 252.489 205.853 255.446 204.949 258.345C201.985 267.76 196.667 275.603 187.146 274.242C164.769 271.032 152.316 247.927 152.316 247.927L167.625 230.386L177.897 216.541L208.692 229.873C208.703 236.448 208.158 243.012 207.062 249.494Z" fill="#FFBC96"/>
<path d="M158.934 242C168.756 241.684 176.352 236.671 179.602 222.43C179.602 222.43 202.492 242.202 213.708 231.652C223.103 222.802 207.165 202.436 180.781 200.007C171.146 199.169 161.561 202.105 154.04 208.199C141.249 218.471 140.028 242.353 151.978 250.619L158.934 242Z" fill="#1B1B43"/>
<path d="M147.435 217.049C146.792 214.724 147.271 212.144 148.309 209.926C149.379 207.697 150.958 205.75 152.917 204.244C154.847 202.727 157.095 201.67 159.493 201.151C161.863 200.601 164.345 200.792 166.604 201.697C164.504 202.348 162.461 203.173 160.498 204.164C158.677 205.099 156.947 206.202 155.331 207.46C153.726 208.697 152.249 210.095 150.925 211.631C149.53 213.276 148.357 215.098 147.435 217.049Z" fill="#FFA121"/>
<path d="M159.456 252.176C163.381 250.601 165.024 245.469 163.124 240.714C161.224 235.959 156.502 233.381 152.577 234.956C148.651 236.532 147.009 241.663 148.908 246.418C150.808 251.173 155.53 253.751 159.456 252.176Z" fill="#FFBC96"/>
<path d="M155.989 248.69C156.219 247.142 156.118 245.563 155.693 244.057C155.224 242.645 154.317 241.374 153.274 240.084L153.603 239.674C154.399 240.08 155.106 240.64 155.684 241.323C156.261 242.005 156.697 242.796 156.967 243.649C157.236 244.503 157.333 245.401 157.252 246.292C157.172 247.183 156.915 248.05 156.497 248.84L155.989 248.69Z" fill="#1B1B43"/>
<path d="M192.792 243.713C192.747 244.154 192.576 244.573 192.299 244.919C192.021 245.265 191.649 245.522 191.229 245.661C190.808 245.799 190.356 245.812 189.929 245.698C189.501 245.584 189.115 245.348 188.818 245.019C188.522 244.689 188.327 244.281 188.257 243.843C188.187 243.404 188.246 242.955 188.426 242.55C188.606 242.145 188.9 241.8 189.271 241.559C189.642 241.317 190.076 241.189 190.519 241.189C191.153 241.224 191.749 241.508 192.175 241.981C192.601 242.454 192.823 243.076 192.792 243.713Z" fill="#1B1B43"/>
<path d="M204.709 245.7C204.622 246.084 204.425 246.435 204.142 246.71C203.86 246.984 203.504 247.171 203.118 247.247C202.732 247.323 202.332 247.285 201.967 247.137C201.602 246.99 201.287 246.74 201.061 246.417C200.835 246.094 200.708 245.713 200.694 245.318C200.68 244.924 200.78 244.535 200.983 244.197C201.186 243.858 201.482 243.587 201.836 243.414C202.189 243.241 202.585 243.175 202.976 243.223C203.532 243.323 204.027 243.64 204.352 244.104C204.676 244.568 204.805 245.141 204.709 245.7Z" fill="#1B1B43"/>
<path d="M192.655 237.381C192.745 238.558 190.866 238.671 188.09 238.756C185.314 238.841 183.393 239.697 183.393 238.949C183.393 238.2 185.422 236.289 188.156 235.828C190.964 235.348 192.543 235.978 192.655 237.381Z" fill="#1B1B43"/>
<path d="M201.51 238.516C201.304 239.678 202.689 239.975 204.737 240.338C206.785 240.7 208.11 241.75 208.213 241.001C208.317 240.253 207.016 238.177 205.038 237.424C203.06 236.67 201.75 237.132 201.51 238.516Z" fill="#1B1B43"/>
<path d="M198.213 247.795C198.746 248.422 199.317 249.015 199.923 249.57L200.83 250.417C201.192 250.729 201.508 251.09 201.769 251.49C201.939 251.761 202.038 252.07 202.056 252.39C202.071 252.718 201.995 253.044 201.835 253.331C201.563 253.778 201.192 254.155 200.75 254.433C199.977 254.901 199.12 255.211 198.228 255.346L198.035 254.875C198.732 254.46 199.402 254.001 200.041 253.501C200.296 253.291 200.508 253.033 200.665 252.743C200.773 252.521 200.741 252.446 200.618 252.182C200.318 251.712 199.557 251.034 199.054 250.351C198.484 249.668 198.037 248.891 197.734 248.054L198.213 247.795Z" fill="#1B1B43"/>
<path d="M186.818 256.123C188.194 257.7 189.636 259.154 191.346 260.077C193.103 261.001 195.106 261.348 197.072 261.07L197.212 261.579C196.192 262.041 195.076 262.252 193.957 262.195C192.817 262.136 191.707 261.814 190.712 261.254C188.787 260.142 187.267 258.443 186.371 256.405L186.818 256.123Z" fill="#1B1B43"/>
<path opacity="0.2" d="M178.742 254.673C181.811 254.673 184.299 252.179 184.299 249.103C184.299 246.028 181.811 243.534 178.742 243.534C175.673 243.534 173.186 246.028 173.186 249.103C173.186 252.179 175.673 254.673 178.742 254.673Z" fill="#FE5B52"/>
<path opacity="0.2" d="M207.062 249.494C206.559 252.489 205.853 255.446 204.949 258.345C204.36 257.675 203.941 256.874 203.726 256.008C203.511 255.142 203.507 254.237 203.714 253.37C203.921 252.502 204.334 251.697 204.916 251.022C205.499 250.348 206.235 249.824 207.062 249.494Z" fill="#FE5B52"/>
<path d="M143.678 315.34L111.587 330.631L121.653 354.546L155.299 338.992L143.678 315.34Z" fill="#FFA121"/>
<path d="M262.545 398.266C261.658 397.795 261.099 397.517 261.099 397.517L261.418 396.882C261.418 396.882 262.015 397.169 262.874 397.63L262.545 398.266Z" fill="#C5C5FF"/>
<path d="M275.853 401.59C274.815 403.642 266.872 400.012 263.17 398.191C266.036 399.782 270.977 402.898 268.783 404.626C267.022 405.991 263.114 403.087 250.323 397.772C252.263 398.69 263.696 404.141 260.812 406.203C257.675 408.444 244.212 403.506 244.212 403.506L232.535 409.795H219.096L170.649 410.106C167.62 410.117 164.601 409.735 161.668 408.971C155.877 407.454 150.496 404.66 145.919 400.794C143.04 398.363 140.524 395.532 138.445 392.386C136.877 390.018 135.537 387.505 134.443 384.882L121.667 354.55L155.29 338.978L172.848 374.699L230.746 387.302L246.904 383.253C250.38 382.378 255.293 383.851 258.351 385.725C265.81 390.291 276.82 399.631 275.853 401.59Z" fill="#FFBC96"/>
<path opacity="0.2" d="M162.523 403.943C162.526 405.655 162.228 407.353 161.645 408.962C155.853 407.444 150.472 404.651 145.895 400.784C143.017 398.353 140.5 395.522 138.422 392.376C140.599 390.621 143.226 389.519 146.002 389.196C148.777 388.874 151.587 389.344 154.107 390.554C156.627 391.763 158.754 393.662 160.243 396.031C161.732 398.4 162.523 401.143 162.523 403.943Z" fill="#FE5B52"/>
<path d="M230.666 387.057C234.669 385.703 238.747 384.581 242.879 383.696C244.96 383.242 247.071 382.941 249.196 382.796C250.28 382.731 251.368 382.759 252.447 382.881C252.987 382.989 253.527 383.131 254.067 383.258C254.607 383.385 255.082 383.648 255.589 383.842C259.53 385.63 262.959 388.191 266.28 390.823C269.601 393.455 272.729 396.322 275.773 399.297L275.914 399.433L275.942 399.607C276.068 400.235 275.954 400.887 275.623 401.434C275.432 401.703 275.181 401.924 274.89 402.079C274.635 402.238 274.348 402.34 274.049 402.376C273.033 402.499 272.002 402.398 271.029 402.079C269.22 401.513 267.47 400.775 265.801 399.876C264.152 398.995 262.513 398.078 260.953 397.084C259.394 396.091 257.83 395.069 256.256 394.062L256.97 392.918C259.73 394.534 262.396 396.305 264.955 398.223C266.281 399.193 267.492 400.31 268.568 401.552C268.857 401.911 269.093 402.311 269.267 402.738C269.374 403 269.428 403.279 269.427 403.562C269.418 403.905 269.298 404.235 269.084 404.503C268.722 404.898 268.243 405.166 267.717 405.266C267.291 405.363 266.857 405.424 266.421 405.45H266.289L266.144 405.388L251.531 399.268L251.968 398.238C254.281 399.274 256.514 400.482 258.647 401.853C259.69 402.597 260.784 403.265 261.555 404.565C261.664 404.759 261.731 404.975 261.752 405.197C261.772 405.419 261.745 405.643 261.672 405.855C261.505 406.25 261.197 406.569 260.808 406.749C260.177 407.048 259.49 407.209 258.793 407.22C256.176 407.281 253.715 406.664 251.277 406.062C248.839 405.459 246.448 404.649 244.086 403.797L244.264 403.298C246.613 404.094 249.027 404.791 251.446 405.37C253.865 405.949 256.345 406.448 258.746 406.311C259.892 406.264 261.259 405.76 260.7 405.002C260.174 404.117 259.089 403.364 258.097 402.7C255.994 401.392 253.796 400.243 251.521 399.264L251.963 398.233L266.632 404.24L266.355 404.193C266.709 404.171 267.061 404.121 267.407 404.042C267.663 403.998 267.902 403.884 268.098 403.713C268.3 403.628 268.027 402.903 267.567 402.361C266.562 401.195 265.429 400.147 264.19 399.236C261.665 397.36 259.035 395.631 256.313 394.057L257.022 392.918C258.572 393.911 260.075 394.985 261.649 395.926C263.222 396.868 264.796 397.809 266.402 398.689C267.988 399.553 269.652 400.264 271.372 400.813C272.154 401.078 272.983 401.174 273.805 401.095L274.063 401.053C274.133 401.023 274.2 400.988 274.265 400.949C274.42 400.907 274.467 400.78 274.571 400.704C274.711 400.444 274.762 400.145 274.716 399.852L274.885 400.163C271.907 397.216 268.779 394.391 265.538 391.722C262.297 389.053 258.915 386.515 255.204 384.764L253.795 384.195C253.325 384.077 252.827 383.94 252.339 383.837C251.323 383.71 250.298 383.671 249.276 383.719C247.191 383.823 245.116 384.075 243.066 384.472C238.94 385.258 234.862 386.283 230.854 387.542L230.666 387.057Z" fill="#D28572"/>
<path d="M121.855 355.007L121.432 354.089L154.632 338.738L140.803 306.302L141.733 305.906L155.947 339.246L121.855 355.007Z" fill="#1B1B43"/>
<path d="M126.603 497.065H124.842V649.104H126.603V497.065Z" fill="#0B141F"/>
<path d="M168.136 482.895H83.3141C77.5498 482.895 72.877 487.578 72.877 493.353C72.877 499.129 77.5498 503.811 83.3141 503.811H168.136C173.901 503.811 178.573 499.129 178.573 493.353C178.573 487.578 173.901 482.895 168.136 482.895Z" fill="#80BFAF"/>
<path d="M105.734 641.549H145.717C149.878 641.549 153.868 643.205 156.811 646.154C159.753 649.103 161.406 653.102 161.406 657.272V659H90.041V657.272C90.041 655.207 90.447 653.162 91.2357 651.254C92.0244 649.346 93.1805 647.613 94.6378 646.153C96.0951 644.692 97.8252 643.534 99.7291 642.744C101.633 641.954 103.674 641.548 105.734 641.549Z" fill="#80BFAF"/>
<path d="M228.359 418.608L226.869 419.55L377.234 658.395L378.724 657.453L228.359 418.608Z" fill="#0B141F"/>
<path d="M377.24 418.634L226.834 657.452L228.324 658.394L378.73 419.576L377.24 418.634Z" fill="#0B141F"/>
<path d="M434.511 409.353H171.054V429.266H434.511V409.353Z" fill="#DAEDE7"/>
<path d="M205.673 149.393C194.784 149.389 184.14 146.15 175.088 140.084C166.036 134.018 158.981 125.398 154.817 115.315C150.652 105.231 149.565 94.1359 151.691 83.4327C153.818 72.7294 159.063 62.8984 166.764 55.1828C174.466 47.4671 184.276 42.2133 194.957 40.0856C205.637 37.9579 216.707 39.0518 226.767 43.229C236.827 47.4063 245.425 54.4792 251.474 63.5537C257.523 72.6281 260.752 83.2965 260.752 94.2099C260.736 108.844 254.927 122.873 244.601 133.219C234.274 143.565 220.274 149.382 205.673 149.393ZM205.673 40.2083C195.015 40.2073 184.596 43.3741 175.733 49.308C166.871 55.2419 159.964 63.6765 155.884 73.5451C151.805 83.4137 150.738 94.2729 152.817 104.75C154.896 115.226 160.028 124.85 167.565 132.403C175.101 139.956 184.703 145.1 195.156 147.184C205.61 149.267 216.445 148.197 226.292 144.109C236.138 140.021 244.554 133.098 250.475 124.216C256.396 115.334 259.555 104.892 259.554 94.2099C259.538 79.8928 253.856 66.1666 243.755 56.0429C233.654 45.9191 219.958 40.2245 205.673 40.2083Z" fill="#80BFAF"/>
<path d="M242.903 132.629C275.987 132.629 302.807 105.75 302.807 72.5921C302.807 39.4346 275.987 12.5552 242.903 12.5552C209.82 12.5552 183 39.4346 183 72.5921C183 105.75 209.82 132.629 242.903 132.629Z" fill="#F0F9F5"/>
<path d="M242.927 73.7314L209.713 47.6368L210.803 46.248L242.885 71.4529L260.772 56.2707L261.908 57.6171L242.927 73.7314Z" fill="#80BFAF"/>
<path d="M74.9155 144.551H44.4964C42.1457 144.551 39.8912 145.487 38.2289 147.153C36.5667 148.819 35.6328 151.078 35.6328 153.434V183.921C35.6328 186.277 36.5667 188.537 38.2289 190.202C39.8912 191.868 42.1457 192.804 44.4964 192.804H66.2022L75.5591 205.75V192.771C77.7917 192.611 79.8808 191.609 81.4059 189.966C82.931 188.324 83.779 186.164 83.7792 183.921V153.434C83.7792 151.078 82.8453 148.819 81.1831 147.153C79.5208 145.487 77.2663 144.551 74.9155 144.551Z" fill="white"/>
<g opacity="0.5">
<path d="M101.147 209.475L90.9021 195.3H69.4969C66.9912 195.298 64.5888 194.299 62.8169 192.523C61.0451 190.747 60.0486 188.34 60.0461 185.828V155.341C60.0486 152.83 61.0451 150.422 62.8169 148.647C64.5888 146.871 66.9912 145.872 69.4969 145.87H99.916C102.421 145.873 104.823 146.872 106.595 148.648C108.366 150.424 109.363 152.831 109.367 155.341V185.828C109.358 188.123 108.52 190.337 107.01 192.062C105.499 193.787 103.416 194.905 101.147 195.211V209.475ZM69.4969 147.047C67.3022 147.048 65.1978 147.922 63.6459 149.477C62.0941 151.033 61.2217 153.142 61.2204 155.341V185.828C61.2217 188.028 62.0941 190.137 63.6459 191.692C65.1978 193.248 67.3022 194.122 69.4969 194.123H91.5033L99.9583 205.841V194.133L100.503 194.09C102.585 193.933 104.531 192.995 105.953 191.464C107.376 189.933 108.17 187.92 108.178 185.828V155.341C108.176 153.142 107.303 151.034 105.752 149.479C104.2 147.924 102.096 147.049 99.9019 147.047H69.4969Z" fill="#007E60"/>
<path d="M84.0814 186.275L71.9062 168.65L74.7997 166.64L83.762 179.609L97.2571 155.407L100.334 157.13L84.0814 186.275Z" fill="#007E60"/>
</g>
<path d="M745.391 657.234H23.6934V659H745.391V657.234Z" fill="#0B141F"/>
</g>
<defs>
<clipPath id="clip0_2_2045">
<rect width="763" height="659" fill="white"/>
</clipPath>
</defs>
</svg>
